<svg width="25" height="24" viewBox="0 0 25 24" fill="none" xmlns="http://www.w3.org/2000/svg">
<g id="Gas Station" clip-path="url(#clip0_1082_30499)">
<path id="Vector" d="M13.37 7.22007H15.37C16.17 7.22007 16.87 7.92007 16.87 8.72007V21.4201C16.87 22.3201 17.47 23.1201 18.37 23.2201C19.47 23.4201 20.37 22.5201 20.37 21.5201V4.92007C20.37 3.62007 21.07 2.32007 22.17 1.62007L23.37 0.820068" stroke="black" stroke-width="1.4" stroke-miterlimit="10" stroke-linecap="round" stroke-linejoin="round"/>
<path id="Vector_2" d="M20.37 6.71997H21.87" stroke="black" stroke-width="1.5" stroke-miterlimit="10" stroke-linecap="round" stroke-linejoin="round"/>
<path id="Vector_3" d="M13.37 22.2363C13.37 22.8363 12.97 23.2363 12.37 23.2363H1.87C1.27 23.2363 0.869995 22.8363 0.869995 22.2363V3.23633C0.869995 2.63633 1.27 2.23633 1.87 2.23633H12.37C12.97 2.23633 13.37 2.63633 13.37 3.23633V22.2363Z" stroke="black" stroke-width="1.4" stroke-miterlimit="10" stroke-linecap="round" stroke-linejoin="round"/>
<path id="Vector_4" d="M10.62 6.73633C10.62 5.93633 9.92 5.23633 9.12 5.23633H5.12C4.32 5.23633 3.62 5.93633 3.62 6.73633C3.62 7.53633 4.32 8.23633 5.12 8.23633H9.12C9.92 8.23633 10.62 7.53633 10.62 6.73633Z" stroke="black" stroke-width="1.4" stroke-miterlimit="10" stroke-linecap="round" stroke-linejoin="round"/>
<path id="Vector_5" d="M0.873901 11.2363H13.37" stroke="black" stroke-width="1.4" stroke-miterlimit="10" stroke-linecap="round" stroke-linejoin="round"/>
</g>
<defs>
<clipPath id="clip0_1082_30499">
<rect width="24" height="24" fill="white" transform="translate(0.119995)"/>
</clipPath>
</defs>
</svg>
